# xmcd
#
# Track frame offsets: 
#        150
#        16097
#        32264
#        56558
#        69689
#        84761
#        97691
#        115409
#        130290
#        148515
#        165446
#
# Disc length: 2370 seconds
#
# Revision: 0
# Processed by: cddbd v1.5.2PL0 Copyright (c) Steve Scherf et al.
# Submitted via: ExactAudioCopyFreeDBPlugin 1.0
#
DISCID=7d09400b
DTITLE=The Nephew Brothers - Independent Gospel Sounds
DYEAR=2008
DGENRE=Country Folk
TTITLE0=When I Die
TTITLE1=Journey To My Saviour's Side
TTITLE2=Green Pastures
TTITLE3=Won't You Come And Sing For Me
TTITLE4=Wounded For Me
TTITLE5=I Saw The Light
TTITLE6=The Lost Soul
TTITLE7=Mount Zion's Lofty Heights
TTITLE8=S.A.V.E.D.
TTITLE9=Wayfaring Stranger
TTITLE10=Gatherring Home
EXTD=
EXTT0=
EXTT1=
EXTT2=
EXTT3=
EXTT4=
EXTT5=
EXTT6=
EXTT7=
EXTT8=
EXTT9=
EXTT10=
PLAYORDER=
